<?xml version="1.0" encoding="UTF-8"?>
<svg width="203.53pt" height="61pt" version="1.1" viewBox="0 0 203.53 61" xmlns="http://www.w3.org/2000/svg">
 <path d="m14.1 8.295c0.027-0.224 0.043-0.455 0.043-0.691 0-0.129 1e-3 -0.279-0.015-0.449 1.993-0.028 3.741-1.464 3.741-3.115 0-0.84-0.548-1.474-0.857-1.853 0.069-0.015 0.139-0.031 0.21-0.048 0.292 0.254 1.12 1.156 1.12 2.295 0 1.981-1.98 3.82-4.242 3.861m-2.008-6.899c-0.037-0.221-0.121-0.421-0.249-0.593 7e-3 -0.202 0.09-0.395 0.415-0.236-0.176 0.18-0.04 0.499-0.04 0.499s0.36-0.167 0.285-0.405c0.534 0.128 0.15 0.845-0.411 0.735m-0.463 1.017c-0.071-0.296-0.223-0.6-0.416-0.829-0.176-0.208-0.467-0.455-0.859-0.455-0.179 0-0.479 0.084-0.67 0.165-0.071-0.13-0.21-0.443-0.21-0.584 0-0.145 0.245-0.292 0.714-0.292 1.032 0 1.648 0.466 1.648 1.248 0 0.275-0.109 0.525-0.207 0.747m2.65 13.3c0.12 0 0.178 0.019 0.248 0.045 0.297 0.808 1.442 2.333 1.49 2.398l0.01 0.014 0.017-4e-3c0.281-0.045 0.998-0.153 1.598-0.153h0.014c0.065 0 0.139 0 0.186 0.046 0.039 0.039 0.058 0.107 0.058 0.204 0 0.149-0.063 0.404-0.139 0.513-0.21-0.229-0.551-0.332-1.097-0.332-0.164 0-0.358 0.049-0.463 0.077l-0.043 9e-3 -0.049 0.013 0.315 0.315c0.486 0.486 0.906 0.905 0.906 1.184 0 0.168-0.164 0.387-0.314 0.484-0.033-0.511-0.549-1.195-1.052-1.578l-0.043-0.032-8e-3 0.18c-7e-3 0.122-0.018 0.305-0.018 0.501 0 0.973-0.099 1.121-0.436 1.121-0.052 0-0.131-0.015-0.18-0.033 0.19-0.235 0.265-0.545 0.265-1.089l-3e-3 -0.251-3e-3 -0.202c0-0.223 0.023-0.388 0.041-0.521l0.01-0.075-0.053-7e-3c-0.158-0.022-0.451-0.062-0.675-0.062-0.481 0-0.807 0.044-1.043 0.266-0.156-0.126-0.316-0.343-0.316-0.48 0-0.203 0.126-0.219 0.292-0.219 0.084 0 0.162 0.012 0.27 0.025 0.207 0.031 0.518 0.077 1.159 0.077h0.04l-0.013-0.039c-0.162-0.465-0.608-1.141-1.323-2.01 0.064-0.233 0.127-0.385 0.352-0.385m-6.174 2.395-0.013 0.039h0.04c0.64 0 0.952-0.046 1.159-0.077 0.108-0.013 0.186-0.025 0.27-0.025 0.165 0 0.292 0.016 0.292 0.219 0 0.137-0.16 0.354-0.315 0.48-0.237-0.222-0.563-0.266-1.043-0.266-0.225 0-0.519 0.04-0.676 0.062l-0.025 3e-3 -0.028 4e-3 9e-3 0.075c0.019 0.133 0.042 0.298 0.042 0.521l-3e-3 0.202-3e-3 0.251c0 0.544 0.075 0.854 0.266 1.089-0.05 0.018-0.129 0.033-0.181 0.033-0.338 0-0.436-0.148-0.436-1.121 0-0.196-0.01-0.379-0.017-0.501l-0.01-0.181-0.042 0.033c-0.502 0.383-1.02 1.067-1.051 1.578-0.151-0.097-0.315-0.316-0.315-0.484 0-0.279 0.42-0.698 0.906-1.184l0.315-0.315-0.092-0.022c-0.105-0.028-0.299-0.077-0.464-0.077-0.545 0-0.885 0.103-1.096 0.332-0.076-0.109-0.139-0.364-0.139-0.513 0-0.097 0.019-0.165 0.058-0.204 0.047-0.046 0.121-0.046 0.186-0.046h0.014c0.6 0 1.318 0.108 1.598 0.153l0.017 4e-3 0.01-0.014c0.049-0.065 1.193-1.59 1.491-2.398 0.068-0.026 0.127-0.045 0.247-0.045 0.225 0 0.288 0.152 0.353 0.385-0.716 0.869-1.162 1.545-1.324 2.01m-3.092-13.674c0-1.139 0.829-2.041 1.121-2.295 0.07 0.017 0.14 0.033 0.21 0.048-0.31 0.379-0.858 1.013-0.858 1.853 0 1.668 1.782 3.116 3.8 3.116-0.013 0.143-0.02 0.293-0.02 0.448 0 0.246 0.014 0.475 0.038 0.691-2.282-0.014-4.291-1.866-4.291-3.861m15.306 3.513c1.024 1.619 1.825 1.592 3.035 1.592-1.001-0.767-1.663-1.75-1.979-2.252l-1.87-2.992c-0.182-0.924-0.66-1.788-1.376-2.431 0.241-0.091 0.441-0.187 0.561-0.278-1.221 0-2.431-0.62-3.097-0.62-0.428 0-0.703 0.256-0.703 0.594 0.027 0.377 0.415 0.76 1.132 0.76 0.162 0 0.37-0.021 0.598-0.059 0.388 0.541 0.701 1.03 0.701 1.728 0 1.31-1.566 2.331-3.147 2.331-0.09 0-0.175-4e-3 -0.264-0.01-0.143-0.325-0.62-0.87-0.62-1.49 0-1.041 0.679-1.891 0.679-2.922 0-0.641-0.312-1.038-0.432-1.203 0.194-0.18 0.406-0.401 0.456-0.553-0.113 0.049-0.247 0.055-0.442 0.055-0.758 0-1.376-0.197-1.978-0.197-0.344 0-0.436 0.106-0.436 0.207 0 0.037 5e-3 0.075 0.015 0.093-0.128-0.05-0.248-0.083-0.391-0.109-0.178-0.034-0.369-0.051-0.573-0.051-0.732 0-0.992 0.307-0.992 0.57 0 0.222 0.175 0.628 0.374 0.938 0.285-0.144 0.628-0.241 0.784-0.241 0.389 0 0.734 0.37 0.917 0.808-0.261 0.032-0.311 0.043-0.575 0.043-0.713 0-1.198-0.255-1.298-0.255-9e-3 0-0.028 5e-3 -0.028 0.021 0 0.1 0.202 0.364 0.6 0.509 0.525 0.192 1.311 0.272 1.442 0.294 0 0.023-0.133 0.271-0.282 0.319-0.031 0.01-0.056 0.011-0.093 3e-3 -0.548-0.108-0.701-0.154-1.396-0.418-0.021-8e-3 -0.034 5e-3 -0.034 0.027 0 0.275 0.712 0.882 1.35 1.115-0.533 0.68-1.198 1.376-1.512 2.437-0.089 6e-3 -0.175 0.01-0.264 0.01-1.581 0-3.147-1.021-3.147-2.331 0-0.698 0.313-1.187 0.701-1.728 0.228 0.038 0.435 0.059 0.598 0.059 0.717 0 1.105-0.383 1.133-0.76 0-0.338-0.275-0.594-0.704-0.594-0.666 0-1.875 0.62-3.098 0.62 0.121 0.091 0.321 0.187 0.561 0.278-0.715 0.643-1.193 1.507-1.375 2.431l-1.87 2.992c-0.315 0.502-0.979 1.485-1.98 2.252 1.21 0 2.012 0.027 3.036-1.592l0.959-1.534c0.071 0.199 0.158 0.393 0.261 0.583l-1.907 3.051c-0.317 0.506-0.975 1.48-1.98 2.252 1.21 0 2.012 0.028 3.036-1.59l1.641-2.628c0.123 0.131 0.252 0.259 0.388 0.381l-2.316 3.708c-0.318 0.507-0.972 1.479-1.979 2.25 1.21 0 2.012 0.029 3.035-1.59l2.258-3.615c0.149 0.094 0.301 0.185 0.459 0.271l-2.757 4.411c-0.318 0.507-0.972 1.476-1.979 2.25 1.21 0 2.012 0.028 3.036-1.59l2.838-4.543c0.168 0.064 0.338 0.126 0.511 0.181l-3.207 5.133c-0.313 0.5-0.982 1.487-1.978 2.25 1.209 0 2.012 0.028 3.035-1.59l3.418-5.47c0.035 6e-3 0.069 0.011 0.103 0.018 0.093 0.296 0.158 0.572 0.158 0.847 0 1.719-1.128 3.237-2.482 4.409 0.087 0.038 0.238 0.051 0.377 0.051 0.28 0 0.46-0.015 0.587-0.037-0.314 0.713-0.988 1.634-1.328 2.11-0.443-0.08-1.088-0.142-1.51-0.142-0.442 0-0.492 0.258-0.492 0.489 0 0.401 0.188 0.72 0.406 0.898 0.082-0.205 0.247-0.479 1.063-0.479 0.016 0 0.044 2e-3 0.082 5e-3 -0.238 0.265-0.985 0.869-0.985 1.355 0 0.322 0.353 0.805 0.818 0.805-0.027-0.104-0.024-0.199-0.024-0.271 0-0.394 0.349-0.855 0.644-1.177-9e-3 0.096-4e-3 0.086-4e-3 0.198 0 0.931 0.084 1.359 0.675 1.359 0.29 0 0.49-0.159 0.559-0.207-0.384-0.353-0.404-0.631-0.404-1.153 1e-3 -0.136 2e-3 -0.269 4e-3 -0.452 1e-3 -0.12-1e-3 -0.278-0.02-0.392 0.211-0.029 0.297-0.029 0.46-0.029 0 0 0.839-0.067 1.042 0.37 0.228-0.209 0.559-0.504 0.559-0.829 0-0.215-0.102-0.458-0.535-0.458-0.164 0-0.679 0.1-1.11 0.1 0.116-0.257 0.631-1.011 1.078-1.558 0.068 0.212 0.173 0.441 0.407 0.629 0.033-0.352 0.239-1.465 0.789-2.116 0.064 0.44 0.15 0.891 0.15 1.842 0 2.314-0.556 4.023-1.737 4.349 0.154 0.267 0.479 0.508 0.816 0.508 0.432 0 0.667-0.489 0.907-0.95 0.125 0.34 0.47 1.174 0.816 1.174s0.692-0.834 0.817-1.174c0.239 0.461 0.475 0.95 0.907 0.95 0.337 0 0.662-0.241 0.816-0.508-1.181-0.326-1.738-2.035-1.738-4.349 0-0.951 0.086-1.402 0.15-1.842 0.551 0.651 0.758 1.764 0.789 2.116 0.235-0.188 0.341-0.417 0.408-0.629 0.446 0.547 0.962 1.301 1.078 1.558-0.431 0-0.947-0.1-1.11-0.1-0.432 0-0.534 0.243-0.534 0.458 0 0.325 0.331 0.62 0.559 0.829 0.201-0.437 1.042-0.37 1.042-0.37 0.162 0 0.248 0 0.46 0.029-0.02 0.114-0.021 0.272-0.02 0.392 2e-3 0.183 2e-3 0.316 3e-3 0.452 0 0.522-0.02 0.8-0.404 1.153 0.069 0.048 0.269 0.207 0.559 0.207 0.591 0 0.676-0.428 0.676-1.359 0-0.112 3e-3 -0.102-5e-3 -0.198 0.295 0.322 0.644 0.783 0.644 1.177 0 0.072 4e-3 0.167-0.025 0.271 0.466 0 0.82-0.483 0.82-0.805 0-0.486-0.747-1.09-0.987-1.355 0.039-3e-3 0.067-5e-3 0.082-5e-3 0.817 0 0.982 0.274 1.064 0.479 0.218-0.178 0.406-0.497 0.406-0.898 0-0.231-0.05-0.489-0.492-0.489-0.422 0-1.066 0.062-1.51 0.142-0.341-0.476-1.013-1.397-1.328-2.11 0.127 0.022 0.308 0.037 0.587 0.037 0.14 0 0.29-0.013 0.377-0.051-1.354-1.172-2.482-2.69-2.482-4.409 0-0.275 0.065-0.551 0.158-0.847 0.033-7e-3 0.069-0.012 0.103-0.018l3.418 5.47c1.023 1.618 1.826 1.59 3.035 1.59-0.996-0.763-1.665-1.75-1.978-2.25l-3.208-5.133c0.174-0.055 0.345-0.117 0.513-0.181l2.837 4.543c1.024 1.618 1.826 1.59 3.036 1.59-1.007-0.774-1.661-1.743-1.979-2.25l-2.756-4.411c0.156-0.086 0.309-0.177 0.457-0.271l2.259 3.615c1.024 1.619 1.825 1.59 3.035 1.59-1.007-0.771-1.66-1.743-1.979-2.25l-2.316-3.708c0.136-0.122 0.266-0.25 0.387-0.381l1.643 2.628c1.023 1.618 1.825 1.59 3.035 1.59-1.006-0.772-1.662-1.746-1.98-2.252l-1.906-3.051c0.102-0.19 0.189-0.384 0.261-0.583z"/>
 <g transform="translate(29.427,1)">
  <path d="m0 0h3.5v20h-3.5z"/>
  <path d="m0 20h3.5v20h-3.5z" fill="#f00"/>
  <path d="m0 40h3.5v20h-3.5z" fill="#fc0"/>
 </g>
 <g transform="translate(39.927,8.988)">
  <path d="m5.292-6.168c0-1.284-0.78-2.112-2.748-2.112h-1.596v8.28h1.692c1.98 0 2.868-0.948 2.868-2.244 0-1.104-0.708-1.824-1.56-1.992v-0.024c0.72-0.192 1.344-0.756 1.344-1.908zm-1.056 0.036c0 0.948-0.588 1.536-1.704 1.536h-0.54v-2.856h0.552c1.164 0 1.692 0.564 1.692 1.32zm0.156 3.816c0 0.948-0.528 1.452-1.752 1.452h-0.648v-2.904h0.708c1.08 0 1.692 0.564 1.692 1.452zm5.52 1.668h0.024v0.648h0.888v-5.76h-0.972v4.404c-0.192 0.24-0.576 0.636-1.164 0.636-0.648 0-0.96-0.384-0.96-1.332v-3.708h-0.972v3.78c0 1.56 0.636 2.124 1.656 2.124 0.876 0 1.392-0.588 1.5-0.792zm4.548-4.428c0.672 0 0.996 0.396 0.996 1.368v3.708h0.972v-3.78c0-1.56-0.648-2.124-1.68-2.124-0.9 0-1.416 0.588-1.524 0.792h-0.024v-0.648h-0.888v5.76h0.972v-4.44c0.192-0.24 0.588-0.636 1.176-0.636zm5.436 4.356c-0.672 0-1.272-0.528-1.272-2.112 0-1.632 0.708-2.208 1.608-2.208 0.348 0 0.576 0.096 0.744 0.204v3.552c-0.132 0.192-0.468 0.564-1.08 0.564zm1.14 0.108h0.024v0.612h0.888v-8.592l-0.972 0.108v2.76c-0.18-0.072-0.444-0.144-0.816-0.144-1.224 0-2.544 0.744-2.544 3.072 0 2.1 0.924 2.94 2.016 2.94 0.912 0 1.296-0.576 1.404-0.756zm4.272-4.5c0.612 0 0.936 0.468 0.936 1.26 0 0.18-0.012 0.336-0.024 0.42h-2.088c0.048-1.08 0.492-1.68 1.176-1.68zm1.944 4.572-0.36-0.684c-0.132 0.132-0.528 0.504-1.212 0.504-0.972 0-1.5-0.636-1.56-1.98h2.94c0.036-0.276 0.072-0.624 0.072-1.116 0-1.38-0.672-2.088-1.764-2.088-1.2 0-2.196 0.912-2.196 2.952 0 2.172 0.912 3.096 2.364 3.096 1.092 0 1.56-0.516 1.716-0.684zm4.08-4.752c-0.192-0.192-0.576-0.612-1.464-0.612-0.936 0-1.668 0.636-1.668 1.488 0 0.792 0.432 1.26 1.152 1.716l0.36 0.228c0.552 0.348 0.84 0.54 0.84 1.092 0 0.372-0.312 0.66-0.888 0.66-0.624 0-0.984-0.372-1.164-0.564l-0.468 0.768c0.228 0.24 0.696 0.66 1.62 0.66 1.176 0 1.836-0.708 1.836-1.62 0-0.852-0.48-1.32-1.26-1.788l-0.36-0.216c-0.516-0.312-0.756-0.552-0.756-0.984 0-0.336 0.276-0.612 0.792-0.612 0.54 0 0.876 0.336 1.008 0.48zm3.456 0.252c0.6 0 0.864 0.396 0.864 1.332v3.708h0.972v-3.864c0-0.216-0.012-0.42-0.048-0.6 0.216-0.252 0.576-0.576 1.104-0.576 0.648 0 0.996 0.396 0.996 1.332v3.708h0.972v-3.864c0-1.368-0.6-2.04-1.752-2.04-0.744 0-1.272 0.444-1.524 0.768-0.264-0.516-0.744-0.768-1.392-0.768-0.792 0-1.284 0.528-1.44 0.792h-0.024v-0.648h-0.888v5.76h0.972v-4.44c0.168-0.204 0.54-0.6 1.188-0.6zm6.804-2.112c0.384 0 0.648-0.288 0.648-0.696 0-0.396-0.264-0.684-0.648-0.684-0.396 0-0.66 0.288-0.66 0.684 0 0.408 0.264 0.696 0.66 0.696zm0.48 1.392h-0.972v5.76h0.972zm3.636 0.684c0.672 0 0.996 0.396 0.996 1.368v3.708h0.972v-3.78c0-1.56-0.648-2.124-1.68-2.124-0.9 0-1.416 0.588-1.524 0.792h-0.024v-0.648h-0.888v5.76h0.972v-4.44c0.192-0.24 0.588-0.636 1.176-0.636zm3.912-2.076c0.384 0 0.648-0.288 0.648-0.696 0-0.396-0.264-0.684-0.648-0.684-0.396 0-0.66 0.288-0.66 0.684 0 0.408 0.264 0.696 0.66 0.696zm0.48 1.392h-0.972v5.76h0.972zm4.392 0.468c-0.192-0.192-0.576-0.612-1.464-0.612-0.936 0-1.668 0.636-1.668 1.488 0 0.792 0.432 1.26 1.152 1.716l0.36 0.228c0.552 0.348 0.84 0.54 0.84 1.092 0 0.372-0.312 0.66-0.888 0.66-0.624 0-0.984-0.372-1.164-0.564l-0.468 0.768c0.228 0.24 0.696 0.66 1.62 0.66 1.176 0 1.836-0.708 1.836-1.62 0-0.852-0.48-1.32-1.26-1.788l-0.36-0.216c-0.516-0.312-0.756-0.552-0.756-0.984 0-0.336 0.276-0.612 0.792-0.612 0.54 0 0.876 0.336 1.008 0.48zm3.912 5.184-0.132-0.78c-0.096 0.06-0.312 0.168-0.6 0.168-0.492 0-0.684-0.24-0.684-1.056v-3.192h1.26l0.12-0.792h-1.38v-1.608h-0.864l-0.108 1.608-0.696 0.144v0.648h0.696v3.324c0 1.272 0.504 1.788 1.488 1.788 0.516 0 0.816-0.192 0.9-0.252zm2.736-5.004c0.612 0 0.936 0.468 0.936 1.26 0 0.18-0.012 0.336-0.024 0.42h-2.088c0.048-1.08 0.492-1.68 1.176-1.68zm1.944 4.572-0.36-0.684c-0.132 0.132-0.528 0.504-1.212 0.504-0.972 0-1.5-0.636-1.56-1.98h2.94c0.036-0.276 0.072-0.624 0.072-1.116 0-1.38-0.672-2.088-1.764-2.088-1.2 0-2.196 0.912-2.196 2.952 0 2.172 0.912 3.096 2.364 3.096 1.092 0 1.56-0.516 1.716-0.684zm3.828-5.232c-0.096-0.036-0.252-0.096-0.528-0.096-0.732 0-1.044 0.432-1.212 0.888h-0.024v-0.78h-0.888v5.76h0.972v-4.224c0.144-0.384 0.468-0.78 1.08-0.78 0.264 0 0.432 0.072 0.48 0.096zm1.332-1.38c0.384 0 0.648-0.288 0.648-0.696 0-0.396-0.264-0.684-0.648-0.684-0.396 0-0.66 0.288-0.66 0.684 0 0.408 0.264 0.696 0.66 0.696zm0.48 1.392h-0.972v5.76h0.972zm4.608 5.112h0.024v0.648h0.888v-5.76h-0.972v4.404c-0.192 0.24-0.576 0.636-1.164 0.636-0.648 0-0.96-0.384-0.96-1.332v-3.708h-0.972v3.78c0 1.56 0.636 2.124 1.656 2.124 0.876 0 1.392-0.588 1.5-0.792zm4.56-4.392c0.6 0 0.864 0.396 0.864 1.332v3.708h0.972v-3.864c0-0.216-0.012-0.42-0.048-0.6 0.216-0.252 0.576-0.576 1.104-0.576 0.648 0 0.996 0.396 0.996 1.332v3.708h0.972v-3.864c0-1.368-0.6-2.04-1.752-2.04-0.744 0-1.272 0.444-1.524 0.768-0.264-0.516-0.744-0.768-1.392-0.768-0.792 0-1.284 0.528-1.44 0.792h-0.024v-0.648h-0.888v5.76h0.972v-4.44c0.168-0.204 0.54-0.6 1.188-0.6z"/>
  <path transform="translate(0,12)" d="m3.168-4.968 0.12-0.792h-1.296v-1.032c0-0.756 0.252-1.008 0.708-1.008 0.252 0 0.432 0.096 0.528 0.156l0.204-0.804c-0.096-0.06-0.408-0.216-0.816-0.216-0.852 0-1.596 0.504-1.596 1.764v1.152l-0.696 0.132v0.648h0.696v4.968h0.972v-4.968zm4.452-2.448c0-0.372-0.252-0.612-0.576-0.612s-0.576 0.24-0.576 0.612 0.252 0.612 0.576 0.612 0.576-0.24 0.576-0.612zm-1.848 0c0-0.372-0.252-0.612-0.576-0.612s-0.576 0.24-0.576 0.612 0.252 0.612 0.576 0.612 0.576-0.24 0.576-0.612zm1.476 6.768h0.024v0.648h0.888v-5.76h-0.972v4.404c-0.192 0.24-0.576 0.636-1.164 0.636-0.648 0-0.96-0.384-0.96-1.332v-3.708h-0.972v3.78c0 1.56 0.636 2.124 1.656 2.124 0.876 0 1.392-0.588 1.5-0.792zm5.052-5.124c-0.096-0.036-0.252-0.096-0.528-0.096-0.732 0-1.044 0.432-1.212 0.888h-0.024v-0.78h-0.888v5.76h0.972v-4.224c0.144-0.384 0.468-0.78 1.08-0.78 0.264 0 0.432 0.072 0.48 0.096zm8.676-2.508h-1.008v5.088c0 1.728-0.528 2.436-1.68 2.436-1.128 0-1.704-0.744-1.704-2.436v-5.088h-1.044v5.076c0 2.352 0.876 3.348 2.688 3.348 1.836 0 2.748-1.164 2.748-3.348zm3.732 3.24c0.6 0 0.864 0.396 0.864 1.332v3.708h0.972v-3.864c0-0.216-0.012-0.42-0.048-0.6 0.216-0.252 0.576-0.576 1.104-0.576 0.648 0 0.996 0.396 0.996 1.332v3.708h0.972v-3.864c0-1.368-0.6-2.04-1.752-2.04-0.744 0-1.272 0.444-1.524 0.768-0.264-0.516-0.744-0.768-1.392-0.768-0.792 0-1.284 0.528-1.44 0.792h-0.024v-0.648h-0.888v5.76h0.972v-4.44c0.168-0.204 0.54-0.6 1.188-0.6zm11.964-0.72-0.852 3.18c-0.168 0.636-0.324 1.248-0.348 1.668h-0.024c-0.012-0.42-0.18-1.02-0.36-1.668l-0.876-3.18h-1.008l0.432 1.416-0.624 1.884c-0.192 0.588-0.36 1.08-0.408 1.548h-0.024c-0.012-0.456-0.156-0.984-0.312-1.584l-0.864-3.264h-1.044l1.812 5.76h0.828l0.66-2.004c0.192-0.564 0.36-1.08 0.384-1.524h0.024c0.024 0.444 0.168 0.936 0.336 1.512l0.588 2.016h0.864l1.752-5.76zm3.624 0.648c0.612 0 0.936 0.468 0.936 1.26 0 0.18-0.012 0.336-0.024 0.42h-2.088c0.048-1.08 0.492-1.68 1.176-1.68zm1.944 4.572-0.36-0.684c-0.132 0.132-0.528 0.504-1.212 0.504-0.972 0-1.5-0.636-1.56-1.98h2.94c0.036-0.276 0.072-0.624 0.072-1.116 0-1.38-0.672-2.088-1.764-2.088-1.2 0-2.196 0.912-2.196 2.952 0 2.172 0.912 3.096 2.364 3.096 1.092 0 1.56-0.516 1.716-0.684zm2.136-8.052-0.972 0.108v7.224c0 1.02 0.444 1.368 1.092 1.368 0.432 0 0.684-0.108 0.78-0.156l-0.084-0.72c-0.06 0.024-0.18 0.072-0.36 0.072-0.336 0-0.456-0.168-0.456-0.648zm4.392 8.484-0.132-0.78c-0.096 0.06-0.312 0.168-0.6 0.168-0.492 0-0.684-0.24-0.684-1.056v-3.192h1.26l0.12-0.792h-1.38v-1.608h-0.864l-0.108 1.608-0.696 0.144v0.648h0.696v3.324c0 1.272 0.504 1.788 1.488 1.788 0.516 0 0.816-0.192 0.9-0.252zm0.81599 1.788c0.636-0.228 1.392-0.744 1.392-1.836 0-0.792-0.324-1.176-0.792-1.176-0.336 0-0.624 0.216-0.624 0.648 0 0.444 0.288 0.684 0.66 0.684h0.036c0 0.696-0.372 1.008-0.876 1.26zm10.32-9.96h-1.164l-2.316 3.684h-0.636v-3.684h-1.044v8.28h1.044v-3.768h0.624l2.4 3.768h1.284l-2.808-4.236zm1.908-0.312-0.972 0.108v7.224c0 1.02 0.444 1.368 1.092 1.368 0.432 0 0.684-0.108 0.78-0.156l-0.084-0.72c-0.06 0.024-0.18 0.072-0.36 0.072-0.336 0-0.456-0.168-0.456-0.648zm2.268 1.44c0.384 0 0.648-0.288 0.648-0.696 0-0.396-0.264-0.684-0.648-0.684-0.396 0-0.66 0.288-0.66 0.684 0 0.408 0.264 0.696 0.66 0.696zm0.48 1.392h-0.972v5.76h0.972zm3.648 0.72c0.6 0 0.864 0.396 0.864 1.332v3.708h0.972v-3.864c0-0.216-0.012-0.42-0.048-0.6 0.216-0.252 0.576-0.576 1.104-0.576 0.648 0 0.996 0.396 0.996 1.332v3.708h0.972v-3.864c0-1.368-0.6-2.04-1.752-2.04-0.744 0-1.272 0.444-1.524 0.768-0.264-0.516-0.744-0.768-1.392-0.768-0.792 0-1.284 0.528-1.44 0.792h-0.024v-0.648h-0.888v5.76h0.972v-4.44c0.168-0.204 0.54-0.6 1.188-0.6zm8.676 1.8h-0.3c-1.308 0-2.4 0.444-2.4 1.776 0 0.936 0.66 1.608 1.536 1.608 0.732 0 1.08-0.492 1.212-0.78h0.024c0.012 0.288 0.024 0.468 0.036 0.636h0.924c-0.024-0.156-0.072-0.708-0.072-1.2v-2.628c0-1.452-0.624-2.076-1.8-2.076-0.924 0-1.476 0.444-1.728 0.696l0.408 0.648c0.216-0.192 0.6-0.516 1.176-0.516 0.624 0 0.984 0.312 0.984 1.284zm0 0.72v1.272c-0.12 0.18-0.396 0.564-0.96 0.564-0.48 0-0.768-0.3-0.768-0.888 0-0.636 0.492-0.9 1.416-0.936zm5.328-2.772c-0.192-0.192-0.576-0.612-1.464-0.612-0.936 0-1.668 0.636-1.668 1.488 0 0.792 0.432 1.26 1.152 1.716l0.36 0.228c0.552 0.348 0.84 0.54 0.84 1.092 0 0.372-0.312 0.66-0.888 0.66-0.624 0-0.984-0.372-1.164-0.564l-0.468 0.768c0.228 0.24 0.696 0.66 1.62 0.66 1.176 0 1.836-0.708 1.836-1.62 0-0.852-0.48-1.32-1.26-1.788l-0.36-0.216c-0.516-0.312-0.756-0.552-0.756-0.984 0-0.336 0.276-0.612 0.792-0.612 0.54 0 0.876 0.336 1.008 0.48zm4.908-0.036c-0.18-0.204-0.588-0.576-1.464-0.576-1.14 0-2.412 0.804-2.412 3.012 0 2.256 1.02 3.036 2.304 3.036 0.9 0 1.344-0.42 1.5-0.6l-0.396-0.672c-0.12 0.132-0.42 0.408-1.008 0.408-0.828 0-1.392-0.552-1.392-2.244 0-1.524 0.648-2.112 1.476-2.112 0.576 0 0.876 0.324 0.984 0.432zm3.168 0.252c0.672 0 0.996 0.396 0.996 1.368v3.708h0.972v-3.78c0-1.524-0.636-2.124-1.644-2.124-0.924 0-1.356 0.552-1.476 0.732h-0.024v-3.42l-0.972 0.108v8.484h0.972v-4.44c0.192-0.24 0.588-0.636 1.176-0.636zm6.54 4.428h0.024v0.648h0.888v-5.76h-0.972v4.404c-0.192 0.24-0.576 0.636-1.164 0.636-0.648 0-0.96-0.384-0.96-1.332v-3.708h-0.972v3.78c0 1.56 0.636 2.124 1.656 2.124 0.876 0 1.392-0.588 1.5-0.792zm5.016 0.54-0.132-0.78c-0.096 0.06-0.312 0.168-0.6 0.168-0.492 0-0.684-0.24-0.684-1.056v-3.192h1.26l0.12-0.792h-1.38v-1.608h-0.864l-0.108 1.608-0.696 0.144v0.648h0.696v3.324c0 1.272 0.504 1.788 1.488 1.788 0.516 0 0.816-0.192 0.9-0.252zm4.164-5.652h-3.456v0.792h2.268v0.024l-2.4 4.32v0.624h3.66l0.084-0.828h-2.484v-0.024l2.328-4.284zm1.092 7.44c0.636-0.228 1.392-0.744 1.392-1.836 0-0.792-0.324-1.176-0.792-1.176-0.336 0-0.624 0.216-0.624 0.648 0 0.444 0.288 0.684 0.66 0.684h0.036c0 0.696-0.372 1.008-0.876 1.26zm9.6-9.96v4.752c0 0.684 0 1.368 0.072 1.716h-0.024c-0.084-0.348-0.42-0.96-0.756-1.56l-2.784-4.908h-0.948v8.28h1.044v-4.812c0-0.684 0-1.368-0.072-1.716h0.024c0.084 0.348 0.42 0.96 0.756 1.56l2.784 4.968h0.948v-8.28zm5.1 5.04h-0.3c-1.308 0-2.4 0.444-2.4 1.776 0 0.936 0.66 1.608 1.536 1.608 0.732 0 1.08-0.492 1.212-0.78h0.024c0.012 0.288 0.024 0.468 0.036 0.636h0.924c-0.024-0.156-0.072-0.708-0.072-1.2v-2.628c0-1.452-0.624-2.076-1.8-2.076-0.924 0-1.476 0.444-1.728 0.696l0.408 0.648c0.216-0.192 0.6-0.516 1.176-0.516 0.624 0 0.984 0.312 0.984 1.284zm0 0.72v1.272c-0.12 0.18-0.396 0.564-0.96 0.564-0.48 0-0.768-0.3-0.768-0.888 0-0.636 0.492-0.9 1.416-0.936zm5.04 2.412-0.132-0.78c-0.096 0.06-0.312 0.168-0.6 0.168-0.492 0-0.684-0.24-0.684-1.056v-3.192h1.26l0.12-0.792h-1.38v-1.608h-0.864l-0.108 1.608-0.696 0.144v0.648h0.696v3.324c0 1.272 0.504 1.788 1.488 1.788 0.516 0 0.816-0.192 0.9-0.252zm4.068-0.54h0.024v0.648h0.888v-5.76h-0.972v4.404c-0.192 0.24-0.576 0.636-1.164 0.636-0.648 0-0.96-0.384-0.96-1.332v-3.708h-0.972v3.78c0 1.56 0.636 2.124 1.656 2.124 0.876 0 1.392-0.588 1.5-0.792zm5.052-5.124c-0.096-0.036-0.252-0.096-0.528-0.096-0.732 0-1.044 0.432-1.212 0.888h-0.024v-0.78h-0.888v5.76h0.972v-4.224c0.144-0.384 0.468-0.78 1.08-0.78 0.264 0 0.432 0.072 0.48 0.096zm3.696 0.48c-0.192-0.192-0.576-0.612-1.464-0.612-0.936 0-1.668 0.636-1.668 1.488 0 0.792 0.432 1.26 1.152 1.716l0.36 0.228c0.552 0.348 0.84 0.54 0.84 1.092 0 0.372-0.312 0.66-0.888 0.66-0.624 0-0.984-0.372-1.164-0.564l-0.468 0.768c0.228 0.24 0.696 0.66 1.62 0.66 1.176 0 1.836-0.708 1.836-1.62 0-0.852-0.48-1.32-1.26-1.788l-0.36-0.216c-0.516-0.312-0.756-0.552-0.756-0.984 0-0.336 0.276-0.612 0.792-0.612 0.54 0 0.876 0.336 1.008 0.48zm4.908-0.036c-0.18-0.204-0.588-0.576-1.464-0.576-1.14 0-2.412 0.804-2.412 3.012 0 2.256 1.02 3.036 2.304 3.036 0.9 0 1.344-0.42 1.5-0.6l-0.396-0.672c-0.12 0.132-0.42 0.408-1.008 0.408-0.828 0-1.392-0.552-1.392-2.244 0-1.524 0.648-2.112 1.476-2.112 0.576 0 0.876 0.324 0.984 0.432zm3.168 0.252c0.672 0 0.996 0.396 0.996 1.368v3.708h0.972v-3.78c0-1.524-0.636-2.124-1.644-2.124-0.924 0-1.356 0.552-1.476 0.732h-0.024v-3.42l-0.972 0.108v8.484h0.972v-4.44c0.192-0.24 0.588-0.636 1.176-0.636zm6.54 4.428h0.024v0.648h0.888v-5.76h-0.972v4.404c-0.192 0.24-0.576 0.636-1.164 0.636-0.648 0-0.96-0.384-0.96-1.332v-3.708h-0.972v3.78c0 1.56 0.636 2.124 1.656 2.124 0.876 0 1.392-0.588 1.5-0.792zm5.016 0.54-0.132-0.78c-0.096 0.06-0.312 0.168-0.6 0.168-0.492 0-0.684-0.24-0.684-1.056v-3.192h1.26l0.12-0.792h-1.38v-1.608h-0.864l-0.108 1.608-0.696 0.144v0.648h0.696v3.324c0 1.272 0.504 1.788 1.488 1.788 0.516 0 0.816-0.192 0.9-0.252zm4.164-5.652h-3.456v0.792h2.268v0.024l-2.4 4.32v0.624h3.66l0.084-0.828h-2.484v-0.024l2.328-4.284z"/>
  <path transform="translate(0,24)" d="m3.864-0.648h0.024v0.648h0.888v-5.76h-0.972v4.404c-0.192 0.24-0.576 0.636-1.164 0.636-0.648 0-0.96-0.384-0.96-1.332v-3.708h-0.972v3.78c0 1.56 0.636 2.124 1.656 2.124 0.876 0 1.392-0.588 1.5-0.792zm4.548-4.428c0.672 0 0.996 0.396 0.996 1.368v3.708h0.972v-3.78c0-1.56-0.648-2.124-1.68-2.124-0.9 0-1.416 0.588-1.524 0.792h-0.024v-0.648h-0.888v5.76h0.972v-4.44c0.192-0.24 0.588-0.636 1.176-0.636zm5.436 4.356c-0.672 0-1.272-0.528-1.272-2.112 0-1.632 0.708-2.208 1.608-2.208 0.348 0 0.576 0.096 0.744 0.204v3.552c-0.132 0.192-0.468 0.564-1.08 0.564zm1.14 0.108h0.024v0.612h0.888v-8.592l-0.972 0.108v2.76c-0.18-0.072-0.444-0.144-0.816-0.144-1.224 0-2.544 0.744-2.544 3.072 0 2.1 0.924 2.94 2.016 2.94 0.912 0 1.296-0.576 1.404-0.756zm7.092-4.464c0.672 0 0.996 0.396 0.996 1.368v3.708h0.972v-3.78c0-1.56-0.648-2.124-1.68-2.124-0.9 0-1.416 0.588-1.524 0.792h-0.024v-0.648h-0.888v5.76h0.972v-4.44c0.192-0.24 0.588-0.636 1.176-0.636zm6.54 4.428h0.024v0.648h0.888v-5.76h-0.972v4.404c-0.192 0.24-0.576 0.636-1.164 0.636-0.648 0-0.96-0.384-0.96-1.332v-3.708h-0.972v3.78c0 1.56 0.636 2.124 1.656 2.124 0.876 0 1.392-0.588 1.5-0.792zm6.48-5.112h-1.152l-1.548 2.244h-0.408v-5.076l-0.972 0.108v8.484h0.972v-2.688h0.396l1.62 2.688h1.164l-1.98-3.12zm1.896-2.832-0.972 0.108v7.224c0 1.02 0.444 1.368 1.092 1.368 0.432 0 0.684-0.108 0.78-0.156l-0.084-0.72c-0.06 0.024-0.18 0.072-0.36 0.072-0.336 0-0.456-0.168-0.456-0.648zm3.648 3.48c0.612 0 0.936 0.468 0.936 1.26 0 0.18-0.012 0.336-0.024 0.42h-2.088c0.048-1.08 0.492-1.68 1.176-1.68zm1.944 4.572-0.36-0.684c-0.132 0.132-0.528 0.504-1.212 0.504-0.972 0-1.5-0.636-1.56-1.98h2.94c0.036-0.276 0.072-0.624 0.072-1.116 0-1.38-0.672-2.088-1.764-2.088-1.2 0-2.196 0.912-2.196 2.952 0 2.172 0.912 3.096 2.364 3.096 1.092 0 1.56-0.516 1.716-0.684zm3.54-2.7h-0.3c-1.308 0-2.4 0.444-2.4 1.776 0 0.936 0.66 1.608 1.536 1.608 0.732 0 1.08-0.492 1.212-0.78h0.024c0.012 0.288 0.024 0.468 0.036 0.636h0.924c-0.024-0.156-0.072-0.708-0.072-1.2v-2.628c0-1.452-0.624-2.076-1.8-2.076-0.924 0-1.476 0.444-1.728 0.696l0.408 0.648c0.216-0.192 0.6-0.516 1.176-0.516 0.624 0 0.984 0.312 0.984 1.284zm0 0.72v1.272c-0.12 0.18-0.396 0.564-0.96 0.564-0.48 0-0.768-0.3-0.768-0.888 0-0.636 0.492-0.9 1.416-0.936zm5.076-3.252c-0.096-0.036-0.252-0.096-0.528-0.096-0.732 0-1.044 0.432-1.212 0.888h-0.024v-0.78h-0.888v5.76h0.972v-4.224c0.144-0.384 0.468-0.78 1.08-0.78 0.264 0 0.432 0.072 0.48 0.096zm2.568 0.66c0.612 0 0.936 0.468 0.936 1.26 0 0.18-0.012 0.336-0.024 0.42h-2.088c0.048-1.08 0.492-1.68 1.176-1.68zm1.944 4.572-0.36-0.684c-0.132 0.132-0.528 0.504-1.212 0.504-0.972 0-1.5-0.636-1.56-1.98h2.94c0.036-0.276 0.072-0.624 0.072-1.116 0-1.38-0.672-2.088-1.764-2.088-1.2 0-2.196 0.912-2.196 2.952 0 2.172 0.912 3.096 2.364 3.096 1.092 0 1.56-0.516 1.716-0.684zm7.488-7.26c-0.18-0.144-0.708-0.624-1.812-0.624-1.296 0-2.124 0.816-2.124 1.884 0 1.14 0.528 1.692 1.44 2.46l0.672 0.564c0.696 0.588 1.032 0.972 1.032 1.692 0 0.564-0.456 1.032-1.272 1.032-0.852 0-1.404-0.528-1.608-0.72l-0.42 0.912c0.24 0.216 0.864 0.744 2.052 0.744 1.488 0 2.304-0.852 2.304-2.112 0-1.08-0.612-1.728-1.392-2.376l-0.672-0.552c-0.756-0.612-1.104-1.02-1.104-1.668 0-0.516 0.372-0.96 1.092-0.96 0.768 0 1.248 0.384 1.38 0.516zm1.92 0.648c0.384 0 0.648-0.288 0.648-0.696 0-0.396-0.264-0.684-0.648-0.684-0.396 0-0.66 0.288-0.66 0.684 0 0.408 0.264 0.696 0.66 0.696zm0.48 1.392h-0.972v5.76h0.972zm5.1 0.432c-0.18-0.204-0.588-0.576-1.464-0.576-1.14 0-2.412 0.804-2.412 3.012 0 2.256 1.02 3.036 2.304 3.036 0.9 0 1.344-0.42 1.5-0.6l-0.396-0.672c-0.12 0.132-0.42 0.408-1.008 0.408-0.828 0-1.392-0.552-1.392-2.244 0-1.524 0.648-2.112 1.476-2.112 0.576 0 0.876 0.324 0.984 0.432zm3.168 0.252c0.672 0 0.996 0.396 0.996 1.368v3.708h0.972v-3.78c0-1.524-0.636-2.124-1.644-2.124-0.924 0-1.356 0.552-1.476 0.732h-0.024v-3.42l-0.972 0.108v8.484h0.972v-4.44c0.192-0.24 0.588-0.636 1.176-0.636zm5.292-0.036c0.612 0 0.936 0.468 0.936 1.26 0 0.18-0.012 0.336-0.024 0.42h-2.088c0.048-1.08 0.492-1.68 1.176-1.68zm1.944 4.572-0.36-0.684c-0.132 0.132-0.528 0.504-1.212 0.504-0.972 0-1.5-0.636-1.56-1.98h2.94c0.036-0.276 0.072-0.624 0.072-1.116 0-1.38-0.672-2.088-1.764-2.088-1.2 0-2.196 0.912-2.196 2.952 0 2.172 0.912 3.096 2.364 3.096 1.092 0 1.56-0.516 1.716-0.684zm3.828-5.232c-0.096-0.036-0.252-0.096-0.528-0.096-0.732 0-1.044 0.432-1.212 0.888h-0.024v-0.78h-0.888v5.76h0.972v-4.224c0.144-0.384 0.468-0.78 1.08-0.78 0.264 0 0.432 0.072 0.48 0.096zm2.988 0.696c0.672 0 0.996 0.396 0.996 1.368v3.708h0.972v-3.78c0-1.524-0.636-2.124-1.644-2.124-0.924 0-1.356 0.552-1.476 0.732h-0.024v-3.42l-0.972 0.108v8.484h0.972v-4.44c0.192-0.24 0.588-0.636 1.176-0.636zm5.292-0.036c0.612 0 0.936 0.468 0.936 1.26 0 0.18-0.012 0.336-0.024 0.42h-2.088c0.048-1.08 0.492-1.68 1.176-1.68zm1.944 4.572-0.36-0.684c-0.132 0.132-0.528 0.504-1.212 0.504-0.972 0-1.5-0.636-1.56-1.98h2.94c0.036-0.276 0.072-0.624 0.072-1.116 0-1.38-0.672-2.088-1.764-2.088-1.2 0-2.196 0.912-2.196 2.952 0 2.172 0.912 3.096 2.364 3.096 1.092 0 1.56-0.516 1.716-0.684zm1.668-6.612c0.384 0 0.648-0.288 0.648-0.696 0-0.396-0.264-0.684-0.648-0.684-0.396 0-0.66 0.288-0.66 0.684 0 0.408 0.264 0.696 0.66 0.696zm0.48 1.392h-0.972v5.76h0.972zm4.104 5.652-0.132-0.78c-0.096 0.06-0.312 0.168-0.6 0.168-0.492 0-0.684-0.24-0.684-1.056v-3.192h1.26l0.12-0.792h-1.38v-1.608h-0.864l-0.108 1.608-0.696 0.144v0.648h0.696v3.324c0 1.272 0.504 1.788 1.488 1.788 0.516 0 0.816-0.192 0.9-0.252z"/>
 </g>
</svg>
