<?xml version="1.0" encoding="UTF-8"?>
<svg id="final-logo" xmlns="http://www.w3.org/2000/svg" viewBox="0 0 2000 1000">
  <g id="coloured">
    <g id="flat">
      <path d="M689.56,709.62c-16.02-22.56-27.21-56.57-27.21-82.72s11.19-60.16,27.21-82.73c9.73-13.72,14.87-29.9,14.87-46.77,0-44.63-36.31-80.94-80.94-80.94s-80.94,36.31-80.94,80.94c0,16.87,5.14,33.04,14.88,46.78,16.02,22.56,27.21,56.57,27.21,82.72s-11.19,60.16-27.21,82.73c-9.73,13.72-14.87,29.9-14.87,46.77,0,44.63,36.31,80.94,80.94,80.94s80.94-36.31,80.94-80.94c0-16.87-5.14-33.04-14.87-46.77,0,0,0,0,0-.01Z" fill="#137d3f"/>
      <path d="M236.32,455.81c-16.02-22.56-27.2-56.57-27.2-82.72s11.19-60.16,27.21-82.73c9.73-13.72,14.88-29.9,14.88-46.77,0-44.63-36.31-80.94-80.94-80.94s-80.94,36.31-80.94,80.94c0,16.87,5.14,33.04,14.88,46.78,16.02,22.56,27.2,56.57,27.2,82.72s-11.19,60.16-27.21,82.73c-9.73,13.72-14.88,29.9-14.88,46.77,0,44.63,36.31,80.94,80.94,80.94s80.94-36.31,80.94-80.94c0-16.87-5.14-33.04-14.88-46.77,0,0,0,0,0,0Z" fill="#137d3f"/>
      <circle cx="396.88" cy="130.94" r="80.94" fill="#137d3f"/>
      <circle cx="396.88" cy="869.06" r="80.94" fill="#137d3f"/>
      <path d="M693.71,204.68c-21.71-38.99-71.09-53.05-110.09-31.34-14.74,8.21-26.37,20.57-33.63,35.75,0,0,0,0,0,.01-11.92,24.97-36.19,51.29-59.03,64.01-22.84,12.72-58.01,19.49-85.52,16.47-16.73-1.83-33.36,1.55-48.1,9.76-33.33,18.56-48.42,57.34-38.54,92.57,.09,.32,.18,.63,.27,.95,.18,.61,.35,1.21,.54,1.82,2.5,8.01,6.26,15.63,11.21,22.61,16.02,22.56,27.2,56.57,27.2,82.72s-9.4,55.75-34.49,95.86c-25.08,40.11-37.22,51.28-58.54,63.15-22.84,12.72-58,19.5-85.52,16.47-16.72-1.83-33.36,1.55-48.1,9.76-38.99,21.71-53.05,71.09-31.34,110.09,21.71,38.99,71.09,53.05,110.09,31.34,14.74-8.21,26.37-20.57,33.63-35.75,0,0,0,0,0-.01,11.92-24.97,36.19-51.29,59.03-64.01,22.84-12.72,58.01-19.49,85.52-16.47,16.73,1.83,33.36-1.55,48.1-9.76,33.33-18.56,48.42-57.34,38.54-92.57-.09-.32-.18-.63-.27-.95-.18-.61-.35-1.21-.54-1.82-2.5-8.01-6.26-15.63-11.21-22.61-16.02-22.56-27.2-56.57-27.2-82.72s9.4-55.75,34.49-95.86c25.08-40.11,37.22-51.28,58.54-63.15,22.84-12.72,58-19.5,85.52-16.47,16.72,1.83,33.36-1.55,48.1-9.76,38.99-21.71,53.05-71.09,31.34-110.09Z" fill="#16697c"/>
    </g>
    <text transform="translate(823.97 643.78)" fill="#146a7d" font-family="Verdana, Verdana" font-size="388.49"><tspan x="0" y="0">CMPG</tspan></text>
  </g>
</svg>